<svg version="1.1" xmlns="http://www.w3.org/2000/svg" xmlns:xlink="http://www.w3.org/1999/xlink" width="48" height="48"><defs><linearGradient x1="14.22988" y1="17.96366" x2="59.22597" y2="55.49221" gradientUnits="userSpaceOnUse" id="color-1"><stop offset="0.14" stop-color="#000000" stop-opacity="0.3"></stop><stop offset="1" stop-color="#000000" stop-opacity="0"></stop></linearGradient><filter id="dropshadow-base"><feColorMatrix type="matrix" values="0 0 0 0 0  0 0 0 0 0  0 0 0 0 0  0 0 0 .8 0"></feColorMatrix> <feOffset dx="0" dy="1"></feOffset> <feGaussianBlur stdDeviation="1"></feGaussianBlur> <feComposite in="SourceGraphic"></feComposite></filter><filter id="dropshadow-banner" x="-10%" y="-10%" width="120%" height="130%"><feColorMatrix type="matrix" values="0 0 0 0 0  0 0 0 0 0  0 0 0 0 0  0 0 0 .4 0"></feColorMatrix> <feOffset dx="0" dy="1"></feOffset> <feGaussianBlur stdDeviation="0.5"></feGaussianBlur> <feComposite in="SourceGraphic"></feComposite></filter></defs><g fill="none" fill-rule="nonzero" stroke="none" stroke-width="none" stroke-linecap="butt" stroke-linejoin="miter" stroke-miterlimit="10" stroke-dasharray="" stroke-dashoffset="0" font-family="none" font-weight="none" font-size="none" text-anchor="none" style="mix-blend-mode: normal"><path d="M2,24c0,-12.15026 9.84974,-22 22,-22c12.15026,0 22,9.84974 22,22c0,12.15026 -9.84974,22 -22,22c-12.15026,0 -22,-9.84974 -22,-22z" id="base 1 9" fill="#87af4a" stroke-width="1"></path><path d="M27.06711,19.60945c-0.03603,-0.09526 -0.02298,-0.20208 0.03488,-0.28585c0.05786,-0.08377 0.15316,-0.13376 0.25498,-0.13376l0.57572,0l-0.00258,-0.00258c-0.05602,-0.05602 -0.09078,-0.13338 -0.09078,-0.21892c0,-0.17117 0.1387,-0.3099 0.3099,-0.3099h1.84567c0.0832,0 0.16171,0.03337 0.2191,0.09075l13.98433,13.98433c-2.42971,5.61165 -7.12954,10.01152 -12.94138,12.04149l-15.88284,-15.88284c-0.70659,-0.70659 -1.14422,-1.68215 -1.14422,-2.758c0,-2.15163 1.75049,-3.90204 3.90216,-3.90208c0.66101,0 1.28409,0.16545 1.83025,0.45675l0.76578,-1.20045l-1.78736,-1.78736c-0.168,-0.168 -0.27205,-0.39995 -0.27205,-0.65575v-0.15384c0,-0.51156 0.41615,-0.92778 0.92774,-0.92778h2.11111c0.37917,0 0.61022,0.09587 0.74692,0.23258l2.39571,2.39571l2.47373,-0.30415z" fill="url(#color-1)" stroke-width="1"></path><path d="M29.86795,22.23211c-0.37718,0 -0.74195,0.05396 -1.08715,0.1543l-0.97525,-2.57678h0.80695c0.17121,0 0.3099,-0.13873 0.3099,-0.3099c0,-0.08686 -0.03584,-0.16529 -0.09339,-0.22151h0.95838c0.02977,0.10583 0.05011,0.25479 0.00073,0.40695c-0.07568,0.23334 -0.29772,0.43095 -0.65982,0.58731c-0.15712,0.06786 -0.22952,0.25024 -0.1617,0.40733c0.05057,0.11709 0.16472,0.18716 0.28471,0.18716c0.04099,0 0.08263,-0.00817 0.12266,-0.02546c0.53289,-0.23006 0.87061,-0.5548 1.00372,-0.9651c0.18052,-0.55648 -0.10415,-1.04574 -0.11636,-1.06631c-0.05583,-0.09404 -0.15708,-0.15167 -0.26643,-0.15167h-1.84567c-0.17121,0 -0.3099,0.13873 -0.3099,0.3099c0,0.08686 0.03584,0.16529 0.09339,0.22151h-0.57575c-0.10182,0 -0.19712,0.05 -0.25498,0.13377c-0.05786,0.08377 -0.07091,0.19059 -0.03488,0.28585l0.25677,0.67833l-5.92274,0.72822l-0.20597,-0.67551c-0.00649,-0.02122 -0.01511,-0.04118 -0.02546,-0.05988l-0.18059,-0.59212l1.40086,-0.29795c0.13415,-0.02851 0.23357,-0.1419 0.24444,-0.2786c0.00198,-0.02473 0.00145,-0.04549 0.00111,-0.05919l-0.00015,-0.3679c0,-0.32902 -0.16098,-0.72119 -0.92785,-0.72119h-2.1111c-0.51159,0 -0.92774,0.41622 -0.92774,0.92778v0.15384c0,0.51159 0.41618,0.92778 0.92774,0.92778c0.01992,0 0.03984,-0.00195 0.05938,-0.00576l0.27139,-0.05297c0.00172,-0.00034 0.00343,-0.00069 0.00511,-0.00103l0.44828,-0.09537l0.21452,0.70333c0.00618,0.02034 0.01485,0.03912 0.02458,0.05709l0.2228,0.7307l-0.88019,1.3798c-0.54617,-0.29131 -1.16924,-0.45675 -1.83025,-0.45675c-2.15167,0.00004 -3.90216,1.75045 -3.90216,3.90208c0,2.15167 1.75049,3.9022 3.90216,3.9022c1.58768,0 2.95675,-0.95319 3.56547,-2.31734c0.26673,0.37951 0.70757,0.62822 1.20558,0.62822c0.07663,0 0.15197,-0.00595 0.22548,-0.01729l0.3734,0.97533c0.04587,0.11991 0.16098,0.19907 0.2894,0.19907h0.61033c0.17121,0 0.3099,-0.13873 0.3099,-0.3099c0,-0.17117 -0.13873,-0.3099 -0.3099,-0.3099h-0.39714l-0.29749,-0.77707c0.40237,-0.26322 0.66891,-0.71757 0.66891,-1.23324c0,-0.37672 -0.14232,-0.72066 -0.37577,-0.9814l3.63722,-4.77639l0.56388,1.48986c-1.32026,0.6262 -2.23552,1.97203 -2.23552,3.52773c0,2.15167 1.75045,3.9022 3.90216,3.9022c2.15167,0 3.90216,-1.75053 3.90216,-3.9022c-0.00004,-2.15152 -1.75053,-3.90193 -3.90216,-3.90193zM19.80583,19.30646l-0.23433,0.04568c-0.15823,-0.01271 -0.2831,-0.14552 -0.2831,-0.30699v-0.15384c0,-0.16983 0.13816,-0.30799 0.30795,-0.30799h2.1111c0.25299,0 0.30047,0.04729 0.30047,0.04729l0.00008,0.00011c0,0 0.00748,0.01355 0.00748,0.05404v0.15174zM18.13205,29.41656c-1.80987,0 -3.28237,-1.4725 -3.28237,-3.28241c0,-1.80983 1.47246,-3.28229 3.28237,-3.28229c0.53842,0 1.04654,0.13113 1.49536,0.36191l-0.27597,0.43263c-0.36825,-0.18124 -0.78203,-0.28345 -1.21939,-0.28345c-1.52807,0 -2.77123,1.24313 -2.77123,2.77116c0,1.52803 1.24317,2.77123 2.77123,2.77123c0.96964,0 1.88151,-0.51747 2.37982,-1.3506c0.08785,-0.14689 0.04,-0.33718 -0.1069,-0.425c-0.14686,-0.08782 -0.33707,-0.04003 -0.425,0.1069c-0.38699,0.647 -1.09505,1.04895 -1.84788,1.04895c-1.18634,0 -2.15144,-0.9651 -2.15144,-2.15144c0,-1.1863 0.9651,-2.15137 2.15144,-2.15137c0.31474,0 0.61361,0.06851 0.88332,0.19044l-0.75039,1.17634c-0.04335,-0.00733 -0.08755,-0.01202 -0.13293,-0.01202c-0.43931,0 -0.79668,0.35737 -0.79668,0.79664c0,0.43931 0.35737,0.79668 0.79668,0.79668c0.28532,0 0.53529,-0.15125 0.67608,-0.37722l2.50465,0.39176c-0.36214,1.4188 -1.65084,2.47115 -3.18077,2.47115zM20.28349,26.13415c0,0.00759 -0.00065,0.01519 -0.00073,0.02282l-1.37857,-0.21567c-0.02347,-0.09385 -0.06297,-0.18128 -0.11648,-0.25872l0.74978,-1.17535c0.45637,0.39485 0.746,0.97751 0.746,1.62691zM18.30894,26.13419c0,0.09751 -0.07938,0.17689 -0.17689,0.17689c-0.09751,0 -0.17689,-0.07938 -0.17689,-0.17689c0,-0.09751 0.07938,-0.17685 0.17689,-0.17685c0.09751,0 0.17689,0.07931 0.17689,0.17685zM21.40778,26.33291l-0.5074,-0.07938c0.00168,-0.03984 0.0029,-0.07965 0.0029,-0.11942c0,-0.86877 -0.40221,-1.64508 -1.02987,-2.15354l0.27601,-0.43271c0.76909,0.60124 1.26492,1.53665 1.26492,2.58625c0,0.06683 -0.0026,0.13296 -0.00656,0.1988zM20.48435,23.02291l0.5959,-0.93411l1.07288,3.51849c-0.04954,0.02942 -0.09724,0.06167 -0.14281,0.09652c-0.12037,-1.09192 -0.69295,-2.04954 -1.52597,-2.6809zM23.47617,27.50445l-0.28368,-0.74096c-0.0611,-0.15983 -0.24036,-0.23994 -0.40023,-0.17857c-0.15983,0.06114 -0.23983,0.24036 -0.17857,0.40023l0.2841,0.74207c-0.46797,-0.0029 -0.84794,-0.38424 -0.84794,-0.85286c0,-0.47041 0.38275,-0.85313 0.85317,-0.85313c0.47041,0 0.85309,0.38275 0.85309,0.85313c0.00008,0.24967 -0.10843,0.47396 -0.27994,0.63009zM24.62004,24.05599l-0.1211,-0.08724l0.36203,-0.48377l0.12526,0.09014zM23.74153,23.94646l-0.21502,-0.1609l0.81214,-1.08532l0.21502,0.16094zM25.36188,23.08184l-0.12945,-0.09324l0.00317,-0.00427c0.04919,-0.0658 0.07034,-0.14846 0.05862,-0.22983c-0.01172,-0.08137 -0.0553,-0.15476 -0.1211,-0.20399l-0.10743,-0.08041l0.15334,-0.2049c0.10251,-0.13701 0.07457,-0.33127 -0.06244,-0.43381c-0.13705,-0.10251 -0.33123,-0.07454 -0.43381,0.06244l-0.15338,0.20494l-0.10755,-0.08049c-0.13693,-0.10247 -0.33127,-0.07457 -0.43378,0.06248l-1.18352,1.58146c-0.10251,0.13697 -0.07457,0.33123 0.06244,0.43378l0.71123,0.53228c0.05393,0.04038 0.11915,0.06179 0.18571,0.06179c0.01466,0 0.02946,-0.00103 0.04412,-0.00313c0.08137,-0.01172 0.15476,-0.0553 0.20399,-0.1211l0.07541,-0.10075l0.1169,0.08415l-0.7452,0.97857c-0.18239,-0.08106 -0.38397,-0.12652 -0.59613,-0.12652c-0.0548,0 -0.10881,0.00328 -0.16201,0.00908l-1.15646,-3.79259l5.39744,-0.6636zM29.86795,29.41656c-1.80987,0 -3.28237,-1.4725 -3.28237,-3.28241c0,-1.29103 0.74955,-2.40989 1.83609,-2.94553l0.18147,0.47957c-0.51026,0.2607 -0.91972,0.66566 -1.18848,1.17711c-0.34428,0.65528 -0.41279,1.40548 -0.19292,2.11225c0.2199,0.70677 0.70188,1.28568 1.3572,1.62993c0.40336,0.21193 0.84256,0.31936 1.28553,0.31932c0.27669,0 0.55495,-0.04194 0.82668,-0.12648c0.7068,-0.21994 1.28572,-0.70196 1.62996,-1.35728c0.7107,-1.35278 0.18842,-3.03151 -1.16436,-3.74221c-0.39225,-0.20605 -0.83237,-0.31619 -1.27255,-0.31841c-0.00053,0 -0.00103,0 -0.0016,0c-0.1704,0 -0.30898,0.13774 -0.30986,0.30833c-0.00088,0.17121 0.13716,0.31058 0.30833,0.31146c0.34623,0.00172 0.67841,0.08499 0.98743,0.24731c1.05017,0.55174 1.45567,1.85506 0.90392,2.90527c-0.26727,0.50877 -0.71669,0.88297 -1.26542,1.05368c-0.54877,0.17079 -1.13108,0.11755 -1.63985,-0.14972c-0.50873,-0.26727 -0.8829,-0.71665 -1.05361,-1.26538c-0.17075,-0.54873 -0.11755,-1.13112 0.14976,-1.63989c0.19781,-0.37634 0.49369,-0.67811 0.86107,-0.8808l0.49427,1.30591c-0.15205,0.14514 -0.24738,0.34924 -0.24738,0.57556c0,0.43931 0.35737,0.79668 0.79668,0.79668c0.43927,0 0.79661,-0.35737 0.79661,-0.79668c0,-0.42901 -0.34115,-0.77901 -0.7663,-0.79512l-0.89705,-2.37016c0.27631,-0.07576 0.5667,-0.11701 0.86668,-0.11701c1.80987,0 3.28237,1.47242 3.28237,3.28229c0.00004,1.80991 -1.47238,3.28241 -3.28229,3.28241zM29.69113,26.13415c0,-0.09751 0.07934,-0.17685 0.17689,-0.17685c0.09747,0 0.17682,0.07934 0.17682,0.17685c0,0.09751 -0.07934,0.17689 -0.17682,0.17689c-0.09751,0 -0.17689,-0.07938 -0.17689,-0.17689z" fill="none" stroke-width="0"></path><path d="M33.77011,26.13404c0,2.15167 -1.75049,3.9022 -3.90216,3.9022c-2.15171,0 -3.90216,-1.75053 -3.90216,-3.9022c0,-1.5557 0.91526,-2.90153 2.23552,-3.52773l-0.56388,-1.48986l-3.63722,4.77639c0.23345,0.26074 0.37577,0.60468 0.37577,0.9814c0,0.51568 -0.26654,0.97002 -0.66891,1.23324l0.29749,0.77707h0.39714c0.17117,0 0.3099,0.13873 0.3099,0.3099c0,0.17117 -0.13869,0.3099 -0.3099,0.3099h-0.61033c-0.12842,0 -0.24353,-0.07915 -0.2894,-0.19907l-0.3734,-0.97533c-0.0735,0.01133 -0.14884,0.01729 -0.22548,0.01729c-0.49801,0 -0.93884,-0.24872 -1.20558,-0.62822c-0.60872,1.36415 -1.97779,2.31734 -3.56547,2.31734c-2.15167,0 -3.90216,-1.75053 -3.90216,-3.9022c0,-2.15163 1.75049,-3.90204 3.90216,-3.90208c0.66101,0 1.28408,0.16544 1.83025,0.45675l0.88019,-1.3798l-0.2228,-0.7307c-0.00973,-0.01798 -0.0184,-0.03675 -0.02458,-0.05709l-0.21452,-0.70333l-0.44828,0.09537c-0.00168,0.00034 -0.0034,0.00069 -0.00511,0.00103l-0.27139,0.05297c-0.01954,0.00382 -0.03946,0.00576 -0.05938,0.00576c-0.51156,0 -0.92774,-0.41618 -0.92774,-0.92778v-0.15384c0,-0.51156 0.41614,-0.92778 0.92774,-0.92778h2.1111c0.76688,0 0.92785,0.39218 0.92785,0.72119l0.00015,0.3679c0.00034,0.0137 0.00088,0.03446 -0.00111,0.05919c-0.01088,0.1367 -0.1103,0.25009 -0.24444,0.2786l-1.40086,0.29795l0.18059,0.59212c0.01034,0.0187 0.01897,0.03866 0.02546,0.05988l0.20597,0.67551l5.92274,-0.72822l-0.25677,-0.67833c-0.03603,-0.09526 -0.02297,-0.20208 0.03488,-0.28585c0.05786,-0.08377 0.15315,-0.13377 0.25498,-0.13377h0.57575c-0.05755,-0.05622 -0.09339,-0.13464 -0.09339,-0.22151c0,-0.17117 0.13869,-0.3099 0.3099,-0.3099h1.84567c0.10934,0 0.21059,0.05763 0.26643,0.15167c0.01221,0.02057 0.29688,0.50984 0.11636,1.06631c-0.13312,0.41031 -0.47083,0.73505 -1.00372,0.9651c-0.04003,0.01729 -0.08167,0.02546 -0.12266,0.02546c-0.11999,0 -0.23414,-0.07007 -0.28471,-0.18716c-0.06782,-0.15708 0.00458,-0.33947 0.1617,-0.40733c0.3621,-0.15636 0.58414,-0.35397 0.65982,-0.58731c0.04938,-0.15216 0.02904,-0.30112 -0.00073,-0.40695h-0.95838c0.05755,0.05622 0.09339,0.13464 0.09339,0.22151c0,0.17117 -0.13869,0.3099 -0.3099,0.3099h-0.80695l0.97525,2.57678c0.3452,-0.10033 0.70997,-0.1543 1.08715,-0.1543c2.15163,0 3.90212,1.75041 3.90216,3.90193zM22.01547,18.83651v-0.15174c0,-0.04049 -0.00748,-0.05404 -0.00748,-0.05404l-0.00008,-0.00011c0,0 -0.04748,-0.04729 -0.30047,-0.04729h-2.1111c-0.16979,0 -0.30795,0.13816 -0.30795,0.30799v0.15384c0,0.16147 0.12487,0.29429 0.2831,0.30699l0.23433,-0.04568zM21.31282,26.94542l-2.50465,-0.39176c-0.14079,0.22597 -0.39077,0.37722 -0.67608,0.37722c-0.43931,0 -0.79668,-0.35737 -0.79668,-0.79668c0,-0.43927 0.35737,-0.79664 0.79668,-0.79664c0.04538,0 0.08957,0.00469 0.13293,0.01202l0.75039,-1.17634c-0.26971,-0.12194 -0.56857,-0.19044 -0.88332,-0.19044c-1.18634,0 -2.15144,0.96506 -2.15144,2.15137c0,1.18634 0.9651,2.15144 2.15144,2.15144c0.75283,0 1.4609,-0.40195 1.84788,-1.04895c0.08793,-0.14693 0.27814,-0.19471 0.425,-0.1069c0.14689,0.08782 0.19475,0.2781 0.1069,0.425c-0.49831,0.83313 -1.41018,1.3506 -2.37982,1.3506c-1.52807,0 -2.77123,-1.24321 -2.77123,-2.77123c0,-1.52803 1.24317,-2.77116 2.77123,-2.77116c0.43736,0 0.85114,0.1022 1.21939,0.28345l0.27597,-0.43263c-0.44881,-0.23078 -0.95693,-0.36191 -1.49536,-0.36191c-1.80991,0 -3.28237,1.47246 -3.28237,3.28229c0,1.80991 1.4725,3.28241 3.28237,3.28241c1.52994,0 2.81863,-1.05235 3.18077,-2.47115zM19.53749,24.50724l-0.74978,1.17535c0.05351,0.07744 0.09301,0.16487 0.11648,0.25872l1.37857,0.21567c0.00008,-0.00763 0.00073,-0.01523 0.00073,-0.02282c0,-0.64941 -0.28963,-1.23206 -0.746,-1.62691zM18.13205,25.95734c-0.09751,0 -0.17689,0.07934 -0.17689,0.17685c0,0.09751 0.07938,0.17689 0.17689,0.17689c0.09751,0 0.17689,-0.07938 0.17689,-0.17689c0,-0.09755 -0.07938,-0.17685 -0.17689,-0.17685zM21.41434,26.13412c0,-1.0496 -0.49583,-1.98501 -1.26492,-2.58625l-0.27601,0.43271c0.62765,0.50846 1.02987,1.28477 1.02987,2.15354c0,0.03977 -0.00122,0.07957 -0.0029,0.11942l0.5074,0.07938c0.00397,-0.06583 0.00656,-0.13197 0.00656,-0.1988zM22.01032,25.70381c0.04557,-0.03484 0.09327,-0.06709 0.14281,-0.09652l-1.07288,-3.51849l-0.5959,0.93411c0.83301,0.63135 1.4056,1.58898 1.52597,2.6809zM23.75611,26.87435c0,-0.47038 -0.38267,-0.85313 -0.85309,-0.85313c-0.47041,0 -0.85317,0.38271 -0.85317,0.85313c0,0.46862 0.37996,0.84996 0.84794,0.85286l-0.2841,-0.74207c-0.06125,-0.15987 0.01874,-0.33909 0.17857,-0.40023c0.15987,-0.06137 0.33913,0.01874 0.40023,0.17857l0.28368,0.74096c0.17151,-0.15613 0.28001,-0.38042 0.27994,-0.63009zM24.98623,23.57512l-0.12526,-0.09014l-0.36203,0.48377l0.1211,0.08724zM24.55367,22.86117l-0.21502,-0.16094l-0.81214,1.08532l0.21502,0.1609zM26.982,20.95417l-5.39744,0.6636l1.15646,3.79259c0.0532,-0.0058 0.1072,-0.00908 0.16201,-0.00908c0.21216,0 0.41374,0.04545 0.59613,0.12652l0.7452,-0.97857l-0.1169,-0.08415l-0.07541,0.10075c-0.04923,0.0658 -0.12262,0.10938 -0.20399,0.1211c-0.01466,0.0021 -0.02946,0.00313 -0.04412,0.00313c-0.06656,0 -0.13178,-0.02141 -0.18571,-0.06179l-0.71123,-0.53228c-0.13701,-0.10255 -0.16495,-0.2968 -0.06244,-0.43378l1.18352,-1.58146c0.10251,-0.13705 0.29684,-0.16495 0.43378,-0.06248l0.10755,0.08049l0.15338,-0.20494c0.10259,-0.13697 0.29677,-0.16495 0.43381,-0.06244c0.13701,0.10255 0.16495,0.2968 0.06244,0.43381l-0.15334,0.2049l0.10743,0.08041c0.0658,0.04923 0.10938,0.12262 0.1211,0.20399c0.01172,0.08137 -0.00943,0.16403 -0.05862,0.22983l-0.00317,0.00427l0.12945,0.09324zM33.15024,26.13415c0,-1.80987 -1.4725,-3.28229 -3.28237,-3.28229c-0.29997,0 -0.59037,0.04126 -0.86668,0.11701l0.89705,2.37016c0.42515,0.01611 0.7663,0.36611 0.7663,0.79512c0,0.43931 -0.35733,0.79668 -0.79661,0.79668c-0.43931,0 -0.79668,-0.35737 -0.79668,-0.79668c0,-0.22631 0.09533,-0.43042 0.24738,-0.57556l-0.49427,-1.30591c-0.36737,0.20269 -0.66326,0.50446 -0.86107,0.8808c-0.2673,0.50877 -0.3205,1.09116 -0.14976,1.63989c0.17071,0.54873 0.54487,0.99811 1.05361,1.26538c0.50877,0.26727 1.09108,0.3205 1.63985,0.14972c0.54873,-0.17071 0.99815,-0.54491 1.26542,-1.05368c0.55174,-1.05021 0.14625,-2.35352 -0.90392,-2.90527c-0.30902,-0.16231 -0.6412,-0.24559 -0.98743,-0.24731c-0.17117,-0.00088 -0.30921,-0.14025 -0.30833,-0.31146c0.00088,-0.17059 0.13945,-0.30833 0.30986,-0.30833c0.00057,0 0.00107,0 0.0016,0c0.44019,0.00221 0.8803,0.11236 1.27255,0.31841c1.35278,0.7107 1.87506,2.38944 1.16436,3.74221c-0.34424,0.65532 -0.92316,1.13734 -1.62996,1.35728c-0.27173,0.08453 -0.54999,0.12648 -0.82668,0.12648c-0.44297,0.00004 -0.88217,-0.10739 -1.28553,-0.31932c-0.65532,-0.34424 -1.1373,-0.92316 -1.3572,-1.62993c-0.21987,-0.70677 -0.15136,-1.45696 0.19292,-2.11225c0.26875,-0.51144 0.67822,-0.9164 1.18848,-1.17711l-0.18147,-0.47957c-1.08654,0.53564 -1.83609,1.6545 -1.83609,2.94553c0,1.80991 1.4725,3.28241 3.28237,3.28241c1.80991,0 3.28233,-1.4725 3.28229,-3.28241zM29.86803,26.31105c0.09747,0 0.17682,-0.07938 0.17682,-0.17689c0,-0.09751 -0.07934,-0.17685 -0.17682,-0.17685c-0.09755,0 -0.17689,0.07934 -0.17689,0.17685c0,0.09751 0.07938,0.17689 0.17689,0.17689z" fill="#ffffff" stroke-width="0"></path><path d="M2,24c0,-12.15026 9.84974,-22 22,-22c12.15026,0 22,9.84974 22,22c0,12.15026 -9.84974,22 -22,22c-12.15026,0 -22,-9.84974 -22,-22z" id="base 1 5 1" fill="none" stroke-width="1"></path><path d="M2,24c0,-12.15026 9.84974,-22 22,-22c12.15026,0 22,9.84974 22,22c0,12.15026 -9.84974,22 -22,22c-12.15026,0 -22,-9.84974 -22,-22z" id="base 1 1 1" fill="none" stroke-width="1"></path><g id="Layer_1 1 1" fill="#000000" stroke-width="1" font-family="Roboto, sans-serif" font-weight="normal" font-size="14" text-anchor="start"><g><g><g></g></g></g><g></g><g></g><g></g><g></g><g></g><g></g><g></g><g></g><g></g><g></g><g></g><g></g><g></g><g></g><g></g></g><rect x="2" y="2" width="44" height="22" fill="none" stroke-width="1"></rect><path d="M2,24v-22h44v22z" fill="none" stroke-width="1"></path><path d="M2,24v-22h44v22z" fill="none" stroke-width="1"></path><path d="M2,24v-22h44v22z" fill="none" stroke-width="1"></path><path d="M2,24v-22h44v22z" fill="none" stroke-width="1"></path><g id="Layer_1 2 1" fill="#000000" stroke-width="1" font-family="Roboto, sans-serif" font-weight="normal" font-size="14" text-anchor="start"><g><g></g></g><g></g><g></g><g></g><g></g><g></g><g></g><g></g><g></g><g></g><g></g><g></g><g></g><g></g><g></g><g></g></g><rect x="2" y="2" width="44" height="22" fill="none" stroke-width="1"></rect><path d="M2,24v-22h44v22z" fill="none" stroke-width="1"></path><path d="M2,24v-22h44v22z" fill="none" stroke-width="1"></path><path d="M2,24v-22h44v22z" fill="none" stroke-width="1"></path><path d="M2,24v-22h44v22z" fill="none" stroke-width="1"></path></g></svg>