<svg version="1.1" xmlns="http://www.w3.org/2000/svg" xmlns:xlink="http://www.w3.org/1999/xlink" width="48" height="48"><defs><linearGradient x1="14.23009" y1="14.22986" x2="68.7717" y2="68.77189" gradientUnits="userSpaceOnUse" id="color-1"><stop offset="0.14" stop-color="#000000" stop-opacity="0.3"></stop><stop offset="1" stop-color="#000000" stop-opacity="0"></stop></linearGradient><filter id="dropshadow-base"><feColorMatrix type="matrix" values="0 0 0 0 0  0 0 0 0 0  0 0 0 0 0  0 0 0 .8 0"></feColorMatrix> <feOffset dx="0" dy="1"></feOffset> <feGaussianBlur stdDeviation="1"></feGaussianBlur> <feComposite in="SourceGraphic"></feComposite></filter><filter id="dropshadow-banner" x="-10%" y="-10%" width="120%" height="130%"><feColorMatrix type="matrix" values="0 0 0 0 0  0 0 0 0 0  0 0 0 0 0  0 0 0 .4 0"></feColorMatrix> <feOffset dx="0" dy="1"></feOffset> <feGaussianBlur stdDeviation="0.5"></feGaussianBlur> <feComposite in="SourceGraphic"></feComposite></filter></defs><g fill="none" fill-rule="nonzero" stroke="none" stroke-width="none" stroke-linecap="butt" stroke-linejoin="miter" stroke-miterlimit="10" stroke-dasharray="" stroke-dashoffset="0" font-family="none" font-weight="none" font-size="none" text-anchor="none" style="mix-blend-mode: normal"><path d="M2,24c0,-12.15026 9.84974,-22 22,-22c12.15026,0 22,9.84974 22,22c0,12.15026 -9.84974,22 -22,22c-12.15026,0 -22,-9.84974 -22,-22z" id="base 1 17" fill="#87af4a" stroke-width="1"></path><path d="M14.34193,33.65826c-0.06906,-0.06906 -0.11178,-0.16447 -0.11178,-0.26985v-7.67352c0,-0.10991 0.0474,-0.21452 0.13006,-0.287c0.0827,-0.07244 0.19273,-0.10567 0.30153,-0.09137l0.42057,0.05558l-0.74042,-0.74042c-0.07057,-0.07057 -0.11181,-0.16725 -0.11181,-0.26992v-4.90431c0,-0.16926 0.11152,-0.31833 0.27394,-0.36612l4.8337,-1.42227c0.01408,-0.00416 0.02843,-0.00752 0.04297,-0.00999c0.54296,-0.0935 1.01575,-0.44274 1.26461,-0.93431l0.37851,-0.74756c0.3666,-1.2745 1.69244,-2.02863 2.97865,-1.68381c0.42789,0.11466 0.79887,0.3368 1.09167,0.6296l18.69021,18.69021c-3.21921,6.59917 -9.64293,11.34832 -17.2456,12.2219z" fill="url(#color-1)" stroke-width="1"></path><path d="M33.72187,28.67639l-0.81416,1.46292c-0.06732,0.12102 -0.19498,0.19605 -0.33348,0.19605h-1.24672c-0.07049,0 -0.13961,-0.01954 -0.19968,-0.05641l-2.08347,-1.27931h-0.81656c-0.62612,0 -1.19897,-0.2723 -1.58985,-0.72207l-2.88561,2.58938c0.48037,0.44664 0.98617,0.92541 1.35476,1.27614c0.33936,0.32291 0.534,0.77684 0.534,1.24538c0,0.21078 -0.1709,0.38164 -0.38164,0.38164c-0.21074,0 -0.38164,-0.17086 -0.38164,-0.38164c0,-0.26055 -0.1082,-0.51293 -0.29684,-0.69242c-1.64351,-1.56375 -2.42115,-2.25853 -2.61113,-2.39791c-0.04931,-0.01855 -0.09553,-0.04767 -0.13518,-0.08736c-0.14899,-0.14907 -0.14896,-0.39069 0.00008,-0.53972c0.09163,-0.09159 0.29138,-0.21059 0.59968,0.02198c0.06267,0.04725 0.14564,0.11549 0.2536,0.20853c0.13014,0.11213 0.29818,0.26196 0.50033,0.44591l2.86156,-2.56781l-3.27561,-1.80189c-0.20345,0.10415 -0.4121,0.19853 -0.62567,0.28146c-1.05139,0.4084 -2.19815,0.54617 -3.31633,0.39836l-3.83892,-0.50728v6.8565h4.69029c-0.02473,-0.03446 -0.04862,-0.06976 -0.07121,-0.10621l-0.74058,-1.19504c-0.11106,-0.17918 -0.0558,-0.41443 0.12335,-0.52545c0.17926,-0.11102 0.41446,-0.0558 0.52545,0.12335l0.74058,1.195c0.19727,0.31829 0.53861,0.50831 0.91308,0.50831h2.82569c0.21074,0 0.38164,0.17086 0.38164,0.38164c0,0.21078 -0.1709,0.38164 -0.38164,0.38164h-9.38828c-0.21074,0 -0.38164,-0.17086 -0.38164,-0.38164v-7.67352c0,-0.10991 0.0474,-0.21452 0.13006,-0.287c0.0827,-0.07244 0.19273,-0.10568 0.30154,-0.09137l4.27055,0.56434c0.84649,0.11182 1.68717,0.0416 2.47549,-0.1912l-3.5628,-1.50768c-0.40634,-0.16819 -0.72787,-0.47076 -0.92201,-0.84454l-2.10568,1.3459c-0.06251,0.03996 -0.134,0.06007 -0.20555,0.06007c-0.06301,0 -0.1261,-0.01557 -0.18334,-0.0469c-0.12228,-0.06698 -0.1983,-0.19533 -0.1983,-0.33474v-4.90431c0,-0.16926 0.11152,-0.31833 0.27394,-0.36611l4.83371,-1.42227c0.01408,-0.00416 0.02843,-0.00752 0.04297,-0.01c0.54296,-0.0935 1.01574,-0.44274 1.26461,-0.9343l0.37851,-0.74756c0.36661,-1.2745 1.69244,-2.02863 2.97865,-1.68381c1.30087,0.34859 2.07568,1.69057 1.72709,2.99144c-0.00706,0.02633 -0.01706,0.05152 -0.02931,0.07537l-0.59136,1.23008l-0.36596,1.07616c-0.03557,0.10465 -0.11476,0.18872 -0.21708,0.23047c-0.10239,0.04183 -0.21773,0.03713 -0.31638,-0.01271l-0.36394,-0.18391l-0.27517,0.23658c-0.48774,0.41935 -1.20027,0.46038 -1.73285,0.09961l-0.20658,-0.13995l-1.0865,0.68711l-0.05244,0.31982c-0.0932,0.56842 0.0898,1.15539 0.48961,1.57012l2.23765,2.32108c0.38687,-0.28223 0.74367,-0.61334 1.0607,-0.99086l0.25982,-0.3094c0.52968,-0.63074 1.27587,-1.02509 2.085,-1.11173c0.01317,-0.08705 0.03072,-0.17281 0.05339,-0.25685c0.1822,-0.67589 0.65127,-1.20973 1.35644,-1.54375c0.12953,-0.06129 0.28238,-0.045 0.39599,0.04236c0.11358,0.08732 0.16869,0.23093 0.1427,0.3718c-0.10831,0.58712 -0.05492,1.04109 0.15876,1.34922c0.21212,0.30593 0.52175,0.37329 0.55541,0.37977c0.09972,0.01298 0.1809,0.06366 0.24261,0.14335l4.15984,5.36839c0.09362,0.12079 0.10614,0.28581 0.03194,0.41939zM24.81717,17.45549l-1.03406,-0.27707c0.02534,0.15128 0.06545,0.28547 0.12075,0.40164c0.0013,0.00275 0.00267,0.00546 0.00389,0.00824c0.05049,0.10392 0.113,0.19346 0.18758,0.26818c0.13838,0.13854 0.29806,0.20334 0.41664,0.23387zM21.88931,15.88075l3.15948,0.8466c0.02488,-0.76222 -0.47625,-1.47093 -1.24385,-1.67664c-0.76771,-0.20563 -1.55608,0.1575 -1.91562,0.83004zM21.48534,16.77548l1.52875,0.42061c-0.0095,-0.07412 -0.01607,-0.15075 -0.02046,-0.22918l-1.41346,-0.37874zM22.56127,25.2319l-2.12911,-2.2085c-0.56617,-0.58727 -0.82534,-1.41845 -0.69333,-2.22342l0.24887,-1.51753c0.03408,-0.20803 0.23044,-0.34897 0.43836,-0.31486c0.208,0.03412 0.34897,0.2304 0.31486,0.43839l-0.03118,0.19013l0.72444,-0.45816c0.12823,-0.0811 0.29238,-0.07854 0.41801,0.00656l0.41343,0.28005c0.24807,0.168 0.57995,0.14896 0.80718,-0.04641l0.46851,-0.40286c0.11705,-0.10064 0.28318,-0.12087 0.42095,-0.05122l0.19952,0.10079l0.07442,-0.21887c-0.20861,-0.06492 -0.45667,-0.18563 -0.68093,-0.41019c-0.0982,-0.09835 -0.18372,-0.20838 -0.25658,-0.32985l-2.20285,-0.60605c-0.37752,0.50278 -0.9369,0.85358 -1.56302,0.96739l-4.53946,1.33568v3.92192l1.72514,-1.10268c-0.00092,-0.02347 -0.00137,-0.04702 -0.00137,-0.07068v-1.56451c0,-0.21078 0.1709,-0.38164 0.38164,-0.38164c0.21074,0 0.38164,0.17086 0.38164,0.38164v1.56451c0,0.43343 0.25872,0.82057 0.65921,0.98632l4.27716,1.80998c0.04847,-0.02473 0.09675,-0.04988 0.14449,-0.07595zM29.37335,24.99002c0.21036,0.13106 0.53816,0.25082 1.04654,0.29303l-0.22944,-0.29608c-0.01515,0.00183 -0.03046,0.00305 -0.0461,0.00305zM27.69457,23.97454c0.44324,-0.23097 0.93903,-0.3518 1.4404,-0.34962l-0.12713,-0.16407c-0.21693,-0.06606 -0.59922,-0.23406 -0.88995,-0.64181c-0.21506,-0.30161 -0.33455,-0.66952 -0.35779,-1.09936c-0.16575,0.17941 -0.28112,0.38821 -0.34501,0.62498c-0.13079,0.48503 -0.02824,1.06482 0.27948,1.62989zM26.94945,24.51987c0.03725,-0.03725 0.0756,-0.07308 0.11457,-0.10816c-0.23189,-0.40683 -0.38004,-0.82836 -0.43862,-1.2392c-0.58254,0.08251 -1.11699,0.37531 -1.50112,0.83278l-0.25982,0.30936c-0.38767,0.46175 -0.83698,0.86812 -1.33136,1.20939l2.52858,1.39098c-0.06599,-0.87961 0.25047,-1.75777 0.88778,-2.39516zM28.54358,28.23631l-1.35594,-2.80416c-0.32882,0.50614 -0.44797,1.12684 -0.32222,1.72595c0.03542,0.03927 0.06343,0.08629 0.08045,0.13995c0.02366,0.07461 0.05347,0.14583 0.08843,0.21349c0.00137,0.00233 0.00244,0.00473 0.00374,0.00706c0.00053,0.00107 0.00111,0.0021 0.00164,0.00313c0.00244,0.00447 0.00485,0.00885 0.0071,0.0134c0.23185,0.42771 0.67959,0.70123 1.18092,0.70119zM32.93229,28.52533l-1.9381,-2.50118c-0.05022,0.02435 -0.1064,0.03839 -0.16601,0.03839c-2.3792,0 -2.57552,-1.34934 -2.5827,-1.40678c-0.00408,-0.03259 -0.0034,-0.06515 0.0008,-0.09709c-0.17609,0.0716 -0.34367,0.16498 -0.49827,0.27887l1.69904,3.51368l1.98821,1.22084h0.91453zM18.75526,30.79302c-0.06263,0.03877 -0.13209,0.05728 -0.20067,0.05728c-0.12777,0 -0.25253,-0.06408 -0.32478,-0.18067l-0.01164,-0.01878c-0.11106,-0.17918 -0.0558,-0.41443 0.12335,-0.52545c0.1793,-0.11094 0.41446,-0.05572 0.52545,0.12339l0.01164,0.01878c0.11106,0.17918 0.0558,0.41443 -0.12335,0.52545zM32.16705,28.80882c0,0.23147 -0.18834,0.41981 -0.41981,0.41981c-0.23151,0 -0.41981,-0.18834 -0.41981,-0.41981c0,-0.23147 0.18834,-0.41981 0.41981,-0.41981c0.23147,0 0.41981,0.18834 0.41981,0.41981z" fill="none" stroke-width="0"></path><path d="M33.72187,28.67639l-0.81416,1.46292c-0.06732,0.12102 -0.19498,0.19605 -0.33348,0.19605h-1.24672c-0.07049,0 -0.13961,-0.01954 -0.19968,-0.05641l-2.08347,-1.27931h-0.81656c-0.62612,0 -1.19897,-0.2723 -1.58985,-0.72207l-2.88561,2.58938c0.48037,0.44664 0.98617,0.92541 1.35476,1.27614c0.33936,0.32291 0.534,0.77684 0.534,1.24538c0,0.21078 -0.1709,0.38164 -0.38164,0.38164c-0.21074,0 -0.38164,-0.17086 -0.38164,-0.38164c0,-0.26055 -0.1082,-0.51293 -0.29684,-0.69242c-1.64351,-1.56375 -2.42115,-2.25853 -2.61113,-2.39791c-0.04931,-0.01855 -0.09553,-0.04767 -0.13518,-0.08736c-0.14899,-0.14907 -0.14896,-0.39069 0.00008,-0.53972c0.09163,-0.09159 0.29138,-0.21059 0.59968,0.02198c0.06267,0.04725 0.14564,0.11549 0.2536,0.20853c0.13014,0.11213 0.29818,0.26196 0.50033,0.44591l2.86156,-2.56781l-3.27561,-1.80189c-0.20345,0.10415 -0.4121,0.19853 -0.62567,0.28146c-1.05139,0.4084 -2.19815,0.54617 -3.31633,0.39836l-3.83892,-0.50728v6.8565h4.69029c-0.02473,-0.03446 -0.04862,-0.06976 -0.07121,-0.10621l-0.74058,-1.19504c-0.11106,-0.17918 -0.0558,-0.41443 0.12335,-0.52545c0.17926,-0.11102 0.41446,-0.0558 0.52545,0.12335l0.74058,1.195c0.19727,0.31829 0.53861,0.50831 0.91308,0.50831h2.82569c0.21074,0 0.38164,0.17086 0.38164,0.38164c0,0.21078 -0.1709,0.38164 -0.38164,0.38164h-9.38828c-0.21074,0 -0.38164,-0.17086 -0.38164,-0.38164v-7.67352c0,-0.10991 0.0474,-0.21452 0.13006,-0.287c0.0827,-0.07244 0.19273,-0.10568 0.30154,-0.09137l4.27055,0.56434c0.84649,0.11182 1.68717,0.0416 2.47549,-0.1912l-3.5628,-1.50768c-0.40634,-0.16819 -0.72787,-0.47076 -0.92201,-0.84454l-2.10568,1.3459c-0.06251,0.03996 -0.134,0.06007 -0.20555,0.06007c-0.06301,0 -0.1261,-0.01557 -0.18334,-0.0469c-0.12228,-0.06698 -0.1983,-0.19533 -0.1983,-0.33474v-4.90431c0,-0.16926 0.11152,-0.31833 0.27394,-0.36611l4.83371,-1.42227c0.01408,-0.00416 0.02843,-0.00752 0.04297,-0.01c0.54296,-0.0935 1.01574,-0.44274 1.26461,-0.9343l0.37851,-0.74756c0.36661,-1.2745 1.69244,-2.02863 2.97865,-1.68381c1.30087,0.34859 2.07568,1.69057 1.72709,2.99144c-0.00706,0.02633 -0.01706,0.05152 -0.02931,0.07537l-0.59136,1.23008l-0.36596,1.07616c-0.03557,0.10465 -0.11476,0.18872 -0.21708,0.23047c-0.10239,0.04183 -0.21773,0.03713 -0.31638,-0.01271l-0.36394,-0.18391l-0.27517,0.23658c-0.48774,0.41935 -1.20027,0.46038 -1.73285,0.09961l-0.20658,-0.13995l-1.0865,0.68711l-0.05244,0.31982c-0.0932,0.56842 0.0898,1.15539 0.48961,1.57012l2.23765,2.32108c0.38687,-0.28223 0.74367,-0.61334 1.0607,-0.99086l0.25982,-0.3094c0.52968,-0.63074 1.27587,-1.02509 2.085,-1.11173c0.01317,-0.08705 0.03072,-0.17281 0.05339,-0.25685c0.1822,-0.67589 0.65127,-1.20973 1.35644,-1.54375c0.12953,-0.06129 0.28238,-0.045 0.39599,0.04236c0.11358,0.08732 0.16869,0.23093 0.1427,0.3718c-0.10831,0.58712 -0.05492,1.04109 0.15876,1.34922c0.21212,0.30593 0.52175,0.37329 0.55541,0.37977c0.09972,0.01298 0.1809,0.06366 0.24261,0.14335l4.15984,5.36839c0.09362,0.12079 0.10614,0.28581 0.03194,0.41939zM24.81717,17.45549l-1.03406,-0.27707c0.02534,0.15128 0.06545,0.28547 0.12075,0.40164c0.0013,0.00275 0.00267,0.00546 0.00389,0.00824c0.05049,0.10392 0.113,0.19346 0.18758,0.26818c0.13838,0.13854 0.29806,0.20334 0.41664,0.23387zM21.88931,15.88075l3.15948,0.8466c0.02488,-0.76222 -0.47625,-1.47093 -1.24385,-1.67664c-0.76771,-0.20563 -1.55608,0.1575 -1.91562,0.83004zM21.48534,16.77548l1.52875,0.42061c-0.0095,-0.07412 -0.01607,-0.15075 -0.02046,-0.22918l-1.41346,-0.37874zM22.56127,25.2319l-2.12911,-2.2085c-0.56617,-0.58727 -0.82534,-1.41845 -0.69333,-2.22342l0.24887,-1.51753c0.03408,-0.20803 0.23044,-0.34897 0.43836,-0.31486c0.208,0.03412 0.34897,0.2304 0.31486,0.43839l-0.03118,0.19013l0.72444,-0.45816c0.12823,-0.0811 0.29238,-0.07854 0.41801,0.00656l0.41343,0.28005c0.24807,0.168 0.57995,0.14896 0.80718,-0.04641l0.46851,-0.40286c0.11705,-0.10064 0.28318,-0.12087 0.42095,-0.05122l0.19952,0.10079l0.07442,-0.21887c-0.20861,-0.06492 -0.45667,-0.18563 -0.68093,-0.41019c-0.0982,-0.09835 -0.18372,-0.20838 -0.25658,-0.32985l-2.20285,-0.60605c-0.37752,0.50278 -0.9369,0.85358 -1.56302,0.96739l-4.53946,1.33568v3.92192l1.72514,-1.10268c-0.00092,-0.02347 -0.00137,-0.04702 -0.00137,-0.07068v-1.56451c0,-0.21078 0.1709,-0.38164 0.38164,-0.38164c0.21074,0 0.38164,0.17086 0.38164,0.38164v1.56451c0,0.43343 0.25872,0.82057 0.65921,0.98632l4.27716,1.80998c0.04847,-0.02473 0.09675,-0.04988 0.14449,-0.07595zM29.37335,24.99002c0.21036,0.13106 0.53816,0.25082 1.04654,0.29303l-0.22944,-0.29608c-0.01515,0.00183 -0.03046,0.00305 -0.0461,0.00305zM27.69457,23.97454c0.44324,-0.23097 0.93903,-0.3518 1.4404,-0.34962l-0.12713,-0.16407c-0.21693,-0.06606 -0.59922,-0.23406 -0.88995,-0.64181c-0.21506,-0.30161 -0.33455,-0.66952 -0.35779,-1.09936c-0.16575,0.17941 -0.28112,0.38821 -0.34501,0.62498c-0.13079,0.48503 -0.02824,1.06482 0.27948,1.62989zM26.94945,24.51987c0.03725,-0.03725 0.0756,-0.07308 0.11457,-0.10816c-0.23189,-0.40683 -0.38004,-0.82836 -0.43862,-1.2392c-0.58254,0.08251 -1.11699,0.37531 -1.50112,0.83278l-0.25982,0.30936c-0.38767,0.46175 -0.83698,0.86812 -1.33136,1.20939l2.52858,1.39098c-0.06599,-0.87961 0.25047,-1.75777 0.88778,-2.39516zM28.54358,28.23631l-1.35594,-2.80416c-0.32882,0.50614 -0.44797,1.12684 -0.32222,1.72595c0.03542,0.03927 0.06343,0.08629 0.08045,0.13995c0.02366,0.07461 0.05347,0.14583 0.08843,0.21349c0.00137,0.00233 0.00244,0.00473 0.00374,0.00706c0.00053,0.00107 0.00111,0.0021 0.00164,0.00313c0.00244,0.00447 0.00485,0.00885 0.0071,0.0134c0.23185,0.42771 0.67959,0.70123 1.18092,0.70119zM32.93229,28.52533l-1.9381,-2.50118c-0.05022,0.02435 -0.1064,0.03839 -0.16601,0.03839c-2.3792,0 -2.57552,-1.34934 -2.5827,-1.40678c-0.00408,-0.03259 -0.0034,-0.06515 0.0008,-0.09709c-0.17609,0.0716 -0.34367,0.16498 -0.49827,0.27887l1.69904,3.51368l1.98821,1.22084h0.91453zM18.75526,30.79302c-0.06263,0.03877 -0.13209,0.05728 -0.20067,0.05728c-0.12777,0 -0.25253,-0.06408 -0.32478,-0.18067l-0.01164,-0.01878c-0.11106,-0.17918 -0.0558,-0.41443 0.12335,-0.52545c0.1793,-0.11094 0.41446,-0.05572 0.52545,0.12339l0.01164,0.01878c0.11106,0.17918 0.0558,0.41443 -0.12335,0.52545zM32.16705,28.80882c0,0.23147 -0.18834,0.41981 -0.41981,0.41981c-0.23151,0 -0.41981,-0.18834 -0.41981,-0.41981c0,-0.23147 0.18834,-0.41981 0.41981,-0.41981c0.23147,0 0.41981,0.18834 0.41981,0.41981z" fill="#ffffff" stroke-width="0"></path><path d="M2,24c0,-12.15026 9.84974,-22 22,-22c12.15026,0 22,9.84974 22,22c0,12.15026 -9.84974,22 -22,22c-12.15026,0 -22,-9.84974 -22,-22z" id="base 1 13 1" fill="none" stroke-width="1"></path><path d="M2,24c0,-12.15026 9.84974,-22 22,-22c12.15026,0 22,9.84974 22,22c0,12.15026 -9.84974,22 -22,22c-12.15026,0 -22,-9.84974 -22,-22z" id="base 1 9 1" fill="none" stroke-width="1"></path><path d="M2,24c0,-12.15026 9.84974,-22 22,-22c12.15026,0 22,9.84974 22,22c0,12.15026 -9.84974,22 -22,22c-12.15026,0 -22,-9.84974 -22,-22z" id="base 1 5 1" fill="none" stroke-width="1"></path><path d="M2,24c0,-12.15026 9.84974,-22 22,-22c12.15026,0 22,9.84974 22,22c0,12.15026 -9.84974,22 -22,22c-12.15026,0 -22,-9.84974 -22,-22z" id="base 1 1 1" fill="none" stroke-width="1"></path><g id="Layer_1 1 1" fill="#000000" stroke-width="1" font-family="Roboto, sans-serif" font-weight="normal" font-size="14" text-anchor="start"><g><g><g></g></g></g><g></g><g></g><g></g><g></g><g></g><g></g><g></g><g></g><g></g><g></g><g></g><g></g><g></g><g></g><g></g></g><rect x="2" y="2" width="44" height="22" fill="none" stroke-width="1"></rect><path d="M2,24v-22h44v22z" fill="none" stroke-width="1"></path><path d="M2,24v-22h44v22z" fill="none" stroke-width="1"></path><path d="M2,24v-22h44v22z" fill="none" stroke-width="1"></path><path d="M2,24v-22h44v22z" fill="none" stroke-width="1"></path><g id="Layer_1 2 1" fill="#000000" stroke-width="1" font-family="Roboto, sans-serif" font-weight="normal" font-size="14" text-anchor="start"><g><g></g></g><g></g><g></g><g></g><g></g><g></g><g></g><g></g><g></g><g></g><g></g><g></g><g></g><g></g><g></g><g></g></g><rect x="2" y="2" width="44" height="22" fill="none" stroke-width="1"></rect><path d="M2,24v-22h44v22z" fill="none" stroke-width="1"></path><path d="M2,24v-22h44v22z" fill="none" stroke-width="1"></path><path d="M2,24v-22h44v22z" fill="none" stroke-width="1"></path><path d="M2,24v-22h44v22z" fill="none" stroke-width="1"></path><g id="Capa_1 1 1" fill="#000000" stroke-width="1" font-family="Roboto, sans-serif" font-weight="normal" font-size="14" text-anchor="start"><g></g><g></g><g></g><g></g><g></g><g></g><g></g><g></g><g></g><g></g><g></g><g></g><g></g><g></g><g></g><g></g></g><rect x="2" y="2" width="44" height="22" fill="none" stroke-width="1"></rect><path d="M2,24v-22h44v22z" fill="none" stroke-width="1"></path><path d="M2,24v-22h44v22z" fill="none" stroke-width="1"></path><path d="M2,24v-22h44v22z" fill="none" stroke-width="1"></path><path d="M2,24v-22h44v22z" fill="none" stroke-width="1"></path><g id="Capa_1 2 1" fill="#000000" stroke-width="1" font-family="Roboto, sans-serif" font-weight="normal" font-size="14" text-anchor="start"><g><g></g></g><g><g></g></g><g><g></g></g><g></g><g></g><g></g><g></g><g></g><g></g><g></g><g></g><g></g><g></g><g></g><g></g><g></g><g></g><g></g></g><rect x="2" y="2" width="44" height="22" fill="none" stroke-width="1"></rect><path d="M2,24v-22h44v22z" fill="none" stroke-width="1"></path><path d="M2,24v-22h44v22z" fill="none" stroke-width="1"></path><path d="M2,24v-22h44v22z" fill="none" stroke-width="1"></path><path d="M2,24v-22h44v22z" fill="none" stroke-width="1"></path></g></svg>