<svg version="1.1" xmlns="http://www.w3.org/2000/svg" xmlns:xlink="http://www.w3.org/1999/xlink" width="48" height="48"><defs><linearGradient x1="14.22989" y1="15.57863" x2="68.77189" y2="67.42315" gradientUnits="userSpaceOnUse" id="color-1"><stop offset="0.14" stop-color="#000000" stop-opacity="0.3"></stop><stop offset="1" stop-color="#000000" stop-opacity="0"></stop></linearGradient><filter id="dropshadow-base"><feColorMatrix type="matrix" values="0 0 0 0 0  0 0 0 0 0  0 0 0 0 0  0 0 0 .8 0"></feColorMatrix> <feOffset dx="0" dy="1"></feOffset> <feGaussianBlur stdDeviation="1"></feGaussianBlur> <feComposite in="SourceGraphic"></feComposite></filter><filter id="dropshadow-banner" x="-10%" y="-10%" width="120%" height="130%"><feColorMatrix type="matrix" values="0 0 0 0 0  0 0 0 0 0  0 0 0 0 0  0 0 0 .4 0"></feColorMatrix> <feOffset dx="0" dy="1"></feOffset> <feGaussianBlur stdDeviation="0.5"></feGaussianBlur> <feComposite in="SourceGraphic"></feComposite></filter></defs><g fill="none" fill-rule="nonzero" stroke="none" stroke-width="none" stroke-linecap="butt" stroke-linejoin="miter" stroke-miterlimit="10" stroke-dasharray="" stroke-dashoffset="0" font-family="none" font-weight="none" font-size="none" text-anchor="none" style="mix-blend-mode: normal"><path d="M2,24c0,-12.15026 9.84974,-22 22,-22c12.15026,0 22,9.84974 22,22c0,12.15026 -9.84974,22 -22,22c-12.15026,0 -22,-9.84974 -22,-22z" id="base 1 13" fill="#87af4a" stroke-width="1"></path><path d="M15.19928,31.45198l0,0c-0.59863,-0.59863 -0.96939,-1.42513 -0.96939,-2.33662v-5.51464c0,-1.82299 1.48302,-3.30601 3.30601,-3.30601c0.04294,0 0.08551,0.00163 0.12801,0.00327c0.19486,-2.63471 2.39934,-4.71934 5.08301,-4.71934h2.5061c1.40516,0 2.67894,0.57149 3.60167,1.49422l15.43841,15.43841c-2.68214,6.38731 -8.29193,11.24181 -15.15019,12.88435z" fill="url(#color-1)" stroke-width="1"></path><path d="M33.77011,23.60072v5.51464c0,1.82299 -1.48302,3.30601 -3.30601,3.30601h-12.9282c-1.82299,0 -3.30601,-1.48302 -3.30601,-3.30601v-5.51464c0,-1.82299 1.48302,-3.30601 3.30601,-3.30601c0.04294,0 0.08551,0.00163 0.12801,0.00327c0.19487,-2.6347 2.39934,-4.71935 5.08301,-4.71935h2.5061c2.68366,0 4.88814,2.08457 5.08301,4.71935c0.04257,-0.00163 0.08506,-0.00327 0.12801,-0.00327c1.82291,0 3.30601,1.4831 3.30608,3.30601zM28.04945,21.34594h-1.63495c0.40125,0.42941 0.68973,0.96535 0.81744,1.56051c0.12778,-0.59523 0.41619,-1.1311 0.81751,-1.56051zM25.96867,23.60072c0,-1.08556 -0.88319,-1.96875 -1.96875,-1.96875c-1.08556,0 -1.96875,0.88319 -1.96875,1.96875c0,1.08556 0.88319,1.96875 1.96875,1.96875c1.08556,0 1.96875,-0.88319 1.96875,-1.96875zM21.58535,21.34594h-1.63495c0.40125,0.42941 0.68973,0.96535 0.81744,1.56051c0.12778,-0.59523 0.41619,-1.1311 0.81751,-1.56051zM19.35688,26.35808c0.7089,0.46975 1.22679,1.20495 1.41096,2.06302c0.18417,-0.85808 0.70206,-1.59327 1.41096,-2.06302c-0.7089,-0.46975 -1.22679,-1.20495 -1.41096,-2.06302c-0.1841,0.85808 -0.70206,1.59327 -1.41096,2.06302zM20.18992,31.08411h1.15584c-0.27704,-0.3725 -0.47718,-0.80518 -0.57792,-1.27441c-0.10067,0.4693 -0.30088,0.90198 -0.57792,1.27441zM23.99993,31.08418c1.08556,0 1.96875,-0.88319 1.96875,-1.96875c0,-1.08556 -0.88319,-1.96875 -1.96875,-1.96875c-1.08556,0 -1.96875,0.88319 -1.96875,1.96875c0,1.08556 0.88319,1.96875 1.96875,1.96875zM26.65394,31.08411h1.15591c-0.27704,-0.3725 -0.47718,-0.80518 -0.57792,-1.27441c-0.10067,0.4693 -0.30088,0.90198 -0.57799,1.27441zM28.6429,26.35808c-0.7089,-0.46975 -1.22679,-1.20495 -1.41096,-2.06302c-0.18417,0.85808 -0.70206,1.59327 -1.41096,2.06302c0.7089,0.46975 1.22679,1.20495 1.41096,2.06302c0.18417,-0.858 0.70206,-1.59327 1.41096,-2.06302zM30.46403,21.63197c-1.08556,0 -1.96875,0.88319 -1.96875,1.96875c0,1.08556 0.88319,1.96875 1.96875,1.96875c1.08556,0 1.96875,-0.88319 1.96875,-1.96875c0,-1.08556 -0.88319,-1.96875 -1.96875,-1.96875zM19.045,20.00861h9.90978c-0.31634,-1.7562 -1.8559,-3.09272 -3.70184,-3.09272h-2.5061c-1.84594,0 -3.3855,1.33652 -3.70184,3.09272zM15.56708,23.60072c0,1.08563 0.88319,1.96875 1.96875,1.96875c1.08556,0 1.96875,-0.88319 1.96875,-1.96875c0,-1.08556 -0.88319,-1.96875 -1.96875,-1.96875c-1.08556,0 -1.96875,0.88311 -1.96875,1.96875zM17.53582,31.08418c1.08556,0 1.96875,-0.88319 1.96875,-1.96875c0,-1.08556 -0.88319,-1.96875 -1.96875,-1.96875c-1.08556,0 -1.96875,0.88319 -1.96875,1.96875c0,1.08556 0.88319,1.96875 1.96875,1.96875zM32.43277,29.11544c0,-1.08556 -0.88319,-1.96875 -1.96875,-1.96875c-1.08556,0 -1.96875,0.88319 -1.96875,1.96875c0,1.08556 0.88319,1.96875 1.96875,1.96875c1.08556,0 1.96875,-0.88319 1.96875,-1.96875zM27.10178,18.7732c0,0.36931 -0.29932,0.66863 -0.66863,0.66863h-4.86615c-0.36931,0 -0.66863,-0.29932 -0.66863,-0.66863c0,-0.36931 0.29932,-0.66863 0.66863,-0.66863h0.22147c0.06761,-0.29769 0.33335,-0.52005 0.65147,-0.52005c0.31812,0 0.58386,0.22236 0.65147,0.52005h0.25713c0.06761,-0.29769 0.33335,-0.52005 0.65147,-0.52005c0.31812,0 0.58386,0.22236 0.65147,0.52005h0.25713c0.06761,-0.29769 0.33335,-0.52005 0.65147,-0.52005c0.31812,0 0.58386,0.22236 0.65147,0.52005h0.22147c0.36923,0 0.66878,0.29932 0.66878,0.66863z" fill="none" stroke-width="0"></path><path d="M33.77011,23.60072v5.51464c0,1.82299 -1.48302,3.30601 -3.30601,3.30601h-12.9282c-1.82299,0 -3.30601,-1.48302 -3.30601,-3.30601v-5.51464c0,-1.82299 1.48302,-3.30601 3.30601,-3.30601c0.04294,0 0.08551,0.00163 0.12801,0.00327c0.19487,-2.6347 2.39934,-4.71935 5.08301,-4.71935h2.5061c2.68366,0 4.88814,2.08457 5.08301,4.71935c0.04257,-0.00163 0.08506,-0.00327 0.12801,-0.00327c1.82291,0 3.30601,1.4831 3.30608,3.30601zM28.04945,21.34594h-1.63495c0.40125,0.42941 0.68973,0.96535 0.81744,1.56051c0.12778,-0.59523 0.41619,-1.1311 0.81751,-1.56051zM25.96867,23.60072c0,-1.08556 -0.88319,-1.96875 -1.96875,-1.96875c-1.08556,0 -1.96875,0.88319 -1.96875,1.96875c0,1.08556 0.88319,1.96875 1.96875,1.96875c1.08556,0 1.96875,-0.88319 1.96875,-1.96875zM21.58535,21.34594h-1.63495c0.40125,0.42941 0.68973,0.96535 0.81744,1.56051c0.12778,-0.59523 0.41619,-1.1311 0.81751,-1.56051zM19.35688,26.35808c0.7089,0.46975 1.22679,1.20495 1.41096,2.06302c0.18417,-0.85808 0.70206,-1.59327 1.41096,-2.06302c-0.7089,-0.46975 -1.22679,-1.20495 -1.41096,-2.06302c-0.1841,0.85808 -0.70206,1.59327 -1.41096,2.06302zM20.18992,31.08411h1.15584c-0.27704,-0.3725 -0.47718,-0.80518 -0.57792,-1.27441c-0.10067,0.4693 -0.30088,0.90198 -0.57792,1.27441zM23.99993,31.08418c1.08556,0 1.96875,-0.88319 1.96875,-1.96875c0,-1.08556 -0.88319,-1.96875 -1.96875,-1.96875c-1.08556,0 -1.96875,0.88319 -1.96875,1.96875c0,1.08556 0.88319,1.96875 1.96875,1.96875zM26.65394,31.08411h1.15591c-0.27704,-0.3725 -0.47718,-0.80518 -0.57792,-1.27441c-0.10067,0.4693 -0.30088,0.90198 -0.57799,1.27441zM28.6429,26.35808c-0.7089,-0.46975 -1.22679,-1.20495 -1.41096,-2.06302c-0.18417,0.85808 -0.70206,1.59327 -1.41096,2.06302c0.7089,0.46975 1.22679,1.20495 1.41096,2.06302c0.18417,-0.858 0.70206,-1.59327 1.41096,-2.06302zM30.46403,21.63197c-1.08556,0 -1.96875,0.88319 -1.96875,1.96875c0,1.08556 0.88319,1.96875 1.96875,1.96875c1.08556,0 1.96875,-0.88319 1.96875,-1.96875c0,-1.08556 -0.88319,-1.96875 -1.96875,-1.96875zM19.045,20.00861h9.90978c-0.31634,-1.7562 -1.8559,-3.09272 -3.70184,-3.09272h-2.5061c-1.84594,0 -3.3855,1.33652 -3.70184,3.09272zM15.56708,23.60072c0,1.08563 0.88319,1.96875 1.96875,1.96875c1.08556,0 1.96875,-0.88319 1.96875,-1.96875c0,-1.08556 -0.88319,-1.96875 -1.96875,-1.96875c-1.08556,0 -1.96875,0.88311 -1.96875,1.96875zM17.53582,31.08418c1.08556,0 1.96875,-0.88319 1.96875,-1.96875c0,-1.08556 -0.88319,-1.96875 -1.96875,-1.96875c-1.08556,0 -1.96875,0.88319 -1.96875,1.96875c0,1.08556 0.88319,1.96875 1.96875,1.96875zM32.43277,29.11544c0,-1.08556 -0.88319,-1.96875 -1.96875,-1.96875c-1.08556,0 -1.96875,0.88319 -1.96875,1.96875c0,1.08556 0.88319,1.96875 1.96875,1.96875c1.08556,0 1.96875,-0.88319 1.96875,-1.96875zM27.10178,18.7732c0,0.36931 -0.29932,0.66863 -0.66863,0.66863h-4.86615c-0.36931,0 -0.66863,-0.29932 -0.66863,-0.66863c0,-0.36931 0.29932,-0.66863 0.66863,-0.66863h0.22147c0.06761,-0.29769 0.33335,-0.52005 0.65147,-0.52005c0.31812,0 0.58386,0.22236 0.65147,0.52005h0.25713c0.06761,-0.29769 0.33335,-0.52005 0.65147,-0.52005c0.31812,0 0.58386,0.22236 0.65147,0.52005h0.25713c0.06761,-0.29769 0.33335,-0.52005 0.65147,-0.52005c0.31812,0 0.58386,0.22236 0.65147,0.52005h0.22147c0.36923,0 0.66878,0.29932 0.66878,0.66863z" fill="#ffffff" stroke-width="0"></path><path d="M2,24c0,-12.15026 9.84974,-22 22,-22c12.15026,0 22,9.84974 22,22c0,12.15026 -9.84974,22 -22,22c-12.15026,0 -22,-9.84974 -22,-22z" id="base 1 9 1" fill="none" stroke-width="1"></path><path d="M2,24c0,-12.15026 9.84974,-22 22,-22c12.15026,0 22,9.84974 22,22c0,12.15026 -9.84974,22 -22,22c-12.15026,0 -22,-9.84974 -22,-22z" id="base 1 5 1" fill="none" stroke-width="1"></path><path d="M2,24c0,-12.15026 9.84974,-22 22,-22c12.15026,0 22,9.84974 22,22c0,12.15026 -9.84974,22 -22,22c-12.15026,0 -22,-9.84974 -22,-22z" id="base 1 1 1" fill="none" stroke-width="1"></path><g id="Layer_1 1 1" fill="#000000" stroke-width="1" font-family="Roboto, sans-serif" font-weight="normal" font-size="14" text-anchor="start"><g><g><g></g></g></g><g></g><g></g><g></g><g></g><g></g><g></g><g></g><g></g><g></g><g></g><g></g><g></g><g></g><g></g><g></g></g><rect x="2" y="2" width="44" height="22" fill="none" stroke-width="1"></rect><path d="M2,24v-22h44v22z" fill="none" stroke-width="1"></path><path d="M2,24v-22h44v22z" fill="none" stroke-width="1"></path><path d="M2,24v-22h44v22z" fill="none" stroke-width="1"></path><path d="M2,24v-22h44v22z" fill="none" stroke-width="1"></path><g id="Layer_1 2 1" fill="#000000" stroke-width="1" font-family="Roboto, sans-serif" font-weight="normal" font-size="14" text-anchor="start"><g><g></g></g><g></g><g></g><g></g><g></g><g></g><g></g><g></g><g></g><g></g><g></g><g></g><g></g><g></g><g></g><g></g></g><rect x="2" y="2" width="44" height="22" fill="none" stroke-width="1"></rect><path d="M2,24v-22h44v22z" fill="none" stroke-width="1"></path><path d="M2,24v-22h44v22z" fill="none" stroke-width="1"></path><path d="M2,24v-22h44v22z" fill="none" stroke-width="1"></path><path d="M2,24v-22h44v22z" fill="none" stroke-width="1"></path><g id="Capa_1 1 1" fill="#000000" stroke-width="1" font-family="Roboto, sans-serif" font-weight="normal" font-size="14" text-anchor="start"><g></g><g></g><g></g><g></g><g></g><g></g><g></g><g></g><g></g><g></g><g></g><g></g><g></g><g></g><g></g><g></g></g><rect x="2" y="2" width="44" height="22" fill="none" stroke-width="1"></rect><path d="M2,24v-22h44v22z" fill="none" stroke-width="1"></path><path d="M2,24v-22h44v22z" fill="none" stroke-width="1"></path><path d="M2,24v-22h44v22z" fill="none" stroke-width="1"></path><path d="M2,24v-22h44v22z" fill="none" stroke-width="1"></path></g></svg>