<svg version="1.1" xmlns="http://www.w3.org/2000/svg" xmlns:xlink="http://www.w3.org/1999/xlink" width="48" height="48"><defs><linearGradient x1="14.22989" y1="18.96465" x2="59.22596" y2="54.49119" gradientUnits="userSpaceOnUse" id="color-1"><stop offset="0.14" stop-color="#000000" stop-opacity="0.3"></stop><stop offset="1" stop-color="#000000" stop-opacity="0"></stop></linearGradient><filter id="dropshadow-base"><feColorMatrix type="matrix" values="0 0 0 0 0  0 0 0 0 0  0 0 0 0 0  0 0 0 .8 0"></feColorMatrix> <feOffset dx="0" dy="1"></feOffset> <feGaussianBlur stdDeviation="1"></feGaussianBlur> <feComposite in="SourceGraphic"></feComposite></filter><filter id="dropshadow-banner" x="-10%" y="-10%" width="120%" height="130%"><feColorMatrix type="matrix" values="0 0 0 0 0  0 0 0 0 0  0 0 0 0 0  0 0 0 .4 0"></feColorMatrix> <feOffset dx="0" dy="1"></feOffset> <feGaussianBlur stdDeviation="0.5"></feGaussianBlur> <feComposite in="SourceGraphic"></feComposite></filter></defs><g fill="none" fill-rule="nonzero" stroke="none" stroke-width="none" stroke-linecap="butt" stroke-linejoin="miter" stroke-miterlimit="10" stroke-dasharray="" stroke-dashoffset="0" font-family="none" font-weight="none" font-size="none" text-anchor="none" style="mix-blend-mode: normal"><path d="M2,24c0,-12.15026 9.84974,-22 22,-22c12.15026,0 22,9.84974 22,22c0,12.15026 -9.84974,22 -22,22c-12.15026,0 -22,-9.84974 -22,-22z" id="base 1 5" fill="#87af4a" stroke-width="1"></path><path d="M14.51144,28.77116c-0.1744,-0.1744 -0.28155,-0.42159 -0.28155,-0.69981v-1.35957c0,-0.24639 0.08423,-0.46824 0.22449,-0.63704l-0.00004,-1.48952c-0.00061,-0.85359 -0.00126,-1.82117 0.18994,-2.58247c0.24574,-0.97823 0.77779,-1.47422 1.58142,-1.47422c0.85893,0 1.55493,0.27024 2.16893,0.50869c0.52086,0.20227 0.97064,0.37695 1.44609,0.37695c0.08659,0 0.17582,-0.01694 0.26719,-0.04561c-0.59105,-0.77882 -0.56034,-1.32561 -0.41256,-1.65974c0.20617,-0.46599 0.74111,-0.74417 1.43098,-0.74417c0.51969,-0.00004 0.90043,0.20312 1.1897,0.4924c0,0 0,0 0,0l2.7779,2.7779c1.79355,1.15656 4.15966,1.75628 5.19871,1.75628c0.83198,0 1.59077,0.33879 2.14056,0.88858l10.43686,10.43686c-2.72492,4.53394 -7.03765,8.00506 -12.16896,9.64415z" fill="url(#color-1)" stroke-width="1"></path><path d="M33.77011,27.5554v0.38645c0,0.60292 -0.49057,1.09349 -1.09353,1.09349h-17.52582c-0.51637,0 -0.92087,-0.42344 -0.92087,-0.964v-1.35957c0,-0.24639 0.08423,-0.46824 0.22448,-0.63704l-0.00004,-1.48952c-0.00061,-0.85359 -0.00126,-1.82117 0.18994,-2.58248c0.24574,-0.97823 0.77779,-1.47422 1.58142,-1.47422c0.85893,0 1.55494,0.27024 2.16893,0.50869c0.52087,0.20227 0.97064,0.37695 1.44609,0.37695c0.0866,0 0.17582,-0.01695 0.26719,-0.04561c-0.59105,-0.77882 -0.56033,-1.32561 -0.41256,-1.65974c0.20616,-0.46599 0.74112,-0.74417 1.43098,-0.74417c1.14276,-0.00008 1.61367,0.98235 1.91757,1.70248c0.28303,0.12911 0.58292,0.3386 0.90019,0.65586c1.75186,1.75183 5.06412,2.66823 6.34855,2.66823c1.53776,0 2.82551,1.15741 3.00561,2.66529c0.28482,0.19762 0.47187,0.52678 0.47187,0.89889zM27.84072,24.72119c-0.48446,0.26097 -1.07777,0.26917 -1.62798,0.02252c-0.4387,-0.1967 -0.86927,-0.18712 -1.15165,0.02553c-0.30997,0.23334 -0.44797,0.71329 -0.39798,1.36526c2.60667,0.16731 5.19281,0.32737 6.50266,0.32737h1.45571c-0.25231,-1.05769 -1.20615,-1.83758 -2.3288,-1.83758c-0.47396,0 -1.17982,-0.10713 -1.98036,-0.32085c-0.10675,0.16262 -0.26936,0.30875 -0.4716,0.41775zM20.69034,21.08488c0.03294,-0.01923 0.06602,-0.03866 0.0993,-0.05828c0.40928,-0.24116 0.90022,-0.53022 1.47834,-0.53289c-0.26952,-0.53323 -0.58563,-0.89606 -1.14161,-0.89603c-0.42538,0 -0.75188,0.14075 -0.8521,0.3673c-0.11285,0.25509 0.03862,0.65685 0.41607,1.1199zM15.66713,21.35638c0.36508,0.12281 0.73776,0.29719 1.12559,0.47881c0.86099,0.40321 1.83705,0.86061 2.93279,0.81279c0.38416,-0.0166 0.89049,-0.28726 1.42655,-0.57376c0.53957,-0.28837 1.13047,-0.60403 1.76289,-0.76241c-0.69532,-0.39218 -1.21806,-0.08507 -1.804,0.26024c-0.39649,0.2336 -0.80649,0.47522 -1.27023,0.47522c-0.59403,0 -1.11921,-0.20395 -1.67523,-0.41985c-0.58964,-0.22899 -1.1994,-0.4658 -1.93975,-0.4658c-0.17762,0 -0.37726,0.03202 -0.55861,0.19475zM15.11015,23.28777c1.0038,0.21822 2.75735,0.94106 3.82755,2.50458c1.36461,0.06156 3.18986,0.17907 5.0874,0.30119c0.00023,0 0.00042,0.00004 0.00069,0.00004c-0.05954,-1.04735 0.31116,-1.57138 0.65464,-1.82999c0.46935,-0.35344 1.13902,-0.38985 1.79136,-0.09743c0.52449,0.23517 0.92213,0.07683 1.06872,-0.00218c0.03549,-0.01912 0.06667,-0.03946 0.09541,-0.06019c-1.40777,-0.455 -2.97511,-1.20791 -4.06227,-2.25758c-0.73268,0.04332 -1.46914,0.43675 -2.12309,0.78626c-0.6014,0.32146 -1.16944,0.62506 -1.69756,0.64792c-0.06385,0.00275 -0.12724,0.00408 -0.19002,0.00408c-1.1681,0 -2.15904,-0.46412 -3.03866,-0.8761c-0.42088,-0.19716 -0.82279,-0.38531 -1.19348,-0.49473c-0.02591,0.07389 -0.05022,0.15457 -0.07255,0.24341c-0.08373,0.33329 -0.1264,0.72371 -0.14815,1.1307zM15.08737,24.58495l0.00004,1.16524c0.02095,-0.00145 0.04202,-0.0024 0.06331,-0.0024h2.24472c0.20613,0 0.44912,0.00458 0.72253,0.0129c-0.92194,-1.08689 -2.20946,-1.63157 -3.02793,-1.82903c-0.00286,0.22101 -0.00279,0.44084 -0.00267,0.6533zM25.27782,27.26657c0.01004,-0.02343 0.0479,-0.14281 -0.02855,-0.4603c-0.42031,-0.02675 -0.84363,-0.05396 -1.26489,-0.0811c-2.75204,-0.17716 -5.35146,-0.34443 -6.58891,-0.34443h-2.24472c-0.19781,0 -0.28787,0.17159 -0.28787,0.33104v1.35957c0,0.15945 0.09011,0.331 0.28787,0.331h9.12876c0.81279,-0.79268 0.96942,-1.06868 0.99831,-1.13578zM30.38045,27.08159c-1.14795,-0.03351 -2.76288,-0.12655 -4.47708,-0.23395c0.04522,0.27421 0.03061,0.49526 -0.04404,0.66891c-0.03481,0.0811 -0.12674,0.2941 -0.68895,0.8858h5.02905c0.13556,-0.47706 0.19609,-0.91942 0.18101,-1.32076zM33.13707,27.5554c0,-0.25391 -0.20658,-0.46049 -0.46049,-0.46049h-1.51082c-0.04862,0 -0.0993,-0.00027 -0.15128,-0.00069c0.0113,0.4076 -0.0421,0.84523 -0.15945,1.30809h1.82155c0.25387,0 0.46049,-0.20651 0.46049,-0.46045zM25.11131,23.61752c0,-0.1748 0.1417,-0.3165 0.3165,-0.3165c0.1748,0 0.3165,0.1417 0.3165,0.3165c0,0.1748 -0.1417,0.3165 -0.3165,0.3165c-0.1748,0 -0.3165,-0.1417 -0.3165,-0.3165zM24.04908,23.04116c0,-0.1748 0.1417,-0.3165 0.3165,-0.3165c0.1748,0 0.3165,0.1417 0.3165,0.3165c0,0.1748 -0.1417,0.3165 -0.3165,0.3165c-0.1748,0 -0.3165,-0.1417 -0.3165,-0.3165zM19.04835,27.39153c0,0.17479 -0.1417,0.3165 -0.3165,0.3165h-2.13824c-0.17479,0 -0.3165,-0.1417 -0.3165,-0.3165c0,-0.17479 0.1417,-0.3165 0.3165,-0.3165h2.13824c0.17479,0 0.3165,0.1417 0.3165,0.3165zM18.81917,24.09949c0,-0.17479 0.1417,-0.3165 0.3165,-0.3165h2.40551c0.17479,0 0.3165,0.1417 0.3165,0.3165c0,0.17479 -0.1417,0.3165 -0.3165,0.3165h-2.40551c-0.17479,0 -0.3165,-0.14167 -0.3165,-0.3165zM19.77981,24.74703h2.40551c0.17479,0 0.3165,0.1417 0.3165,0.3165c0,0.17479 -0.1417,0.3165 -0.3165,0.3165h-2.40551c-0.17479,0 -0.3165,-0.1417 -0.3165,-0.3165c0,-0.17479 0.1417,-0.3165 0.3165,-0.3165zM23.09172,22.37774c0,-0.1748 0.1417,-0.3165 0.3165,-0.3165c0.1748,0 0.3165,0.1417 0.3165,0.3165c0,0.1748 -0.1417,0.3165 -0.3165,0.3165c-0.1748,0 -0.3165,-0.1417 -0.3165,-0.3165z" fill="none" stroke-width="0"></path><path d="M33.77011,27.5554v0.38645c0,0.60292 -0.49057,1.09349 -1.09353,1.09349h-17.52582c-0.51637,0 -0.92087,-0.42344 -0.92087,-0.964v-1.35957c0,-0.24639 0.08423,-0.46824 0.22448,-0.63704l-0.00004,-1.48952c-0.00061,-0.85359 -0.00126,-1.82117 0.18994,-2.58248c0.24574,-0.97823 0.77779,-1.47422 1.58142,-1.47422c0.85893,0 1.55494,0.27024 2.16893,0.50869c0.52087,0.20227 0.97064,0.37695 1.44609,0.37695c0.0866,0 0.17582,-0.01695 0.26719,-0.04561c-0.59105,-0.77882 -0.56033,-1.32561 -0.41256,-1.65974c0.20616,-0.46599 0.74112,-0.74417 1.43098,-0.74417c1.14276,-0.00008 1.61367,0.98235 1.91757,1.70248c0.28303,0.12911 0.58292,0.3386 0.90019,0.65586c1.75186,1.75183 5.06412,2.66823 6.34855,2.66823c1.53776,0 2.82551,1.15741 3.00561,2.66529c0.28482,0.19762 0.47187,0.52678 0.47187,0.89889zM27.84072,24.72119c-0.48446,0.26097 -1.07777,0.26917 -1.62798,0.02252c-0.4387,-0.1967 -0.86927,-0.18712 -1.15165,0.02553c-0.30997,0.23334 -0.44797,0.71329 -0.39798,1.36526c2.60667,0.16731 5.19281,0.32737 6.50266,0.32737h1.45571c-0.25231,-1.05769 -1.20615,-1.83758 -2.3288,-1.83758c-0.47396,0 -1.17982,-0.10713 -1.98036,-0.32085c-0.10675,0.16262 -0.26936,0.30875 -0.4716,0.41775zM20.69034,21.08488c0.03294,-0.01923 0.06602,-0.03866 0.0993,-0.05828c0.40928,-0.24116 0.90022,-0.53022 1.47834,-0.53289c-0.26952,-0.53323 -0.58563,-0.89606 -1.14161,-0.89603c-0.42538,0 -0.75188,0.14075 -0.8521,0.3673c-0.11285,0.25509 0.03862,0.65685 0.41607,1.1199zM15.66713,21.35638c0.36508,0.12281 0.73776,0.29719 1.12559,0.47881c0.86099,0.40321 1.83705,0.86061 2.93279,0.81279c0.38416,-0.0166 0.89049,-0.28726 1.42655,-0.57376c0.53957,-0.28837 1.13047,-0.60403 1.76289,-0.76241c-0.69532,-0.39218 -1.21806,-0.08507 -1.804,0.26024c-0.39649,0.2336 -0.80649,0.47522 -1.27023,0.47522c-0.59403,0 -1.11921,-0.20395 -1.67523,-0.41985c-0.58964,-0.22899 -1.1994,-0.4658 -1.93975,-0.4658c-0.17762,0 -0.37726,0.03202 -0.55861,0.19475zM15.11015,23.28777c1.0038,0.21822 2.75735,0.94106 3.82755,2.50458c1.36461,0.06156 3.18986,0.17907 5.0874,0.30119c0.00023,0 0.00042,0.00004 0.00069,0.00004c-0.05954,-1.04735 0.31116,-1.57138 0.65464,-1.82999c0.46935,-0.35344 1.13902,-0.38985 1.79136,-0.09743c0.52449,0.23517 0.92213,0.07683 1.06872,-0.00218c0.03549,-0.01912 0.06667,-0.03946 0.09541,-0.06019c-1.40777,-0.455 -2.97511,-1.20791 -4.06227,-2.25758c-0.73268,0.04332 -1.46914,0.43675 -2.12309,0.78626c-0.6014,0.32146 -1.16944,0.62506 -1.69756,0.64792c-0.06385,0.00275 -0.12724,0.00408 -0.19002,0.00408c-1.1681,0 -2.15904,-0.46412 -3.03866,-0.8761c-0.42088,-0.19716 -0.82279,-0.38531 -1.19348,-0.49473c-0.02591,0.07389 -0.05022,0.15457 -0.07255,0.24341c-0.08373,0.33329 -0.1264,0.72371 -0.14815,1.1307zM15.08737,24.58495l0.00004,1.16524c0.02095,-0.00145 0.04202,-0.0024 0.06331,-0.0024h2.24472c0.20613,0 0.44912,0.00458 0.72253,0.0129c-0.92194,-1.08689 -2.20946,-1.63157 -3.02793,-1.82903c-0.00286,0.22101 -0.00279,0.44084 -0.00267,0.6533zM25.27782,27.26657c0.01004,-0.02343 0.0479,-0.14281 -0.02855,-0.4603c-0.42031,-0.02675 -0.84363,-0.05396 -1.26489,-0.0811c-2.75204,-0.17716 -5.35146,-0.34443 -6.58891,-0.34443h-2.24472c-0.19781,0 -0.28787,0.17159 -0.28787,0.33104v1.35957c0,0.15945 0.09011,0.331 0.28787,0.331h9.12876c0.81279,-0.79268 0.96942,-1.06868 0.99831,-1.13578zM30.38045,27.08159c-1.14795,-0.03351 -2.76288,-0.12655 -4.47708,-0.23395c0.04522,0.27421 0.03061,0.49526 -0.04404,0.66891c-0.03481,0.0811 -0.12674,0.2941 -0.68895,0.8858h5.02905c0.13556,-0.47706 0.19609,-0.91942 0.18101,-1.32076zM33.13707,27.5554c0,-0.25391 -0.20658,-0.46049 -0.46049,-0.46049h-1.51082c-0.04862,0 -0.0993,-0.00027 -0.15128,-0.00069c0.0113,0.4076 -0.0421,0.84523 -0.15945,1.30809h1.82155c0.25387,0 0.46049,-0.20651 0.46049,-0.46045zM25.11131,23.61752c0,-0.1748 0.1417,-0.3165 0.3165,-0.3165c0.1748,0 0.3165,0.1417 0.3165,0.3165c0,0.1748 -0.1417,0.3165 -0.3165,0.3165c-0.1748,0 -0.3165,-0.1417 -0.3165,-0.3165zM24.04908,23.04116c0,-0.1748 0.1417,-0.3165 0.3165,-0.3165c0.1748,0 0.3165,0.1417 0.3165,0.3165c0,0.1748 -0.1417,0.3165 -0.3165,0.3165c-0.1748,0 -0.3165,-0.1417 -0.3165,-0.3165zM19.04835,27.39153c0,0.17479 -0.1417,0.3165 -0.3165,0.3165h-2.13824c-0.17479,0 -0.3165,-0.1417 -0.3165,-0.3165c0,-0.17479 0.1417,-0.3165 0.3165,-0.3165h2.13824c0.17479,0 0.3165,0.1417 0.3165,0.3165zM18.81917,24.09949c0,-0.17479 0.1417,-0.3165 0.3165,-0.3165h2.40551c0.17479,0 0.3165,0.1417 0.3165,0.3165c0,0.17479 -0.1417,0.3165 -0.3165,0.3165h-2.40551c-0.17479,0 -0.3165,-0.14167 -0.3165,-0.3165zM19.77981,24.74703h2.40551c0.17479,0 0.3165,0.1417 0.3165,0.3165c0,0.17479 -0.1417,0.3165 -0.3165,0.3165h-2.40551c-0.17479,0 -0.3165,-0.1417 -0.3165,-0.3165c0,-0.17479 0.1417,-0.3165 0.3165,-0.3165zM23.09172,22.37774c0,-0.1748 0.1417,-0.3165 0.3165,-0.3165c0.1748,0 0.3165,0.1417 0.3165,0.3165c0,0.1748 -0.1417,0.3165 -0.3165,0.3165c-0.1748,0 -0.3165,-0.1417 -0.3165,-0.3165z" fill="#ffffff" stroke-width="0"></path><path d="M2,24c0,-12.15026 9.84974,-22 22,-22c12.15026,0 22,9.84974 22,22c0,12.15026 -9.84974,22 -22,22c-12.15026,0 -22,-9.84974 -22,-22z" id="base 1 1 1" fill="none" stroke-width="1"></path><g id="Layer_1 1 1" fill="#000000" stroke-width="1" font-family="Roboto, sans-serif" font-weight="normal" font-size="14" text-anchor="start"><g><g><g></g></g></g><g></g><g></g><g></g><g></g><g></g><g></g><g></g><g></g><g></g><g></g><g></g><g></g><g></g><g></g><g></g></g><rect x="2" y="2" width="44" height="22" fill="none" stroke-width="1"></rect><path d="M2,24v-22h44v22z" fill="none" stroke-width="1"></path><path d="M2,24v-22h44v22z" fill="none" stroke-width="1"></path><path d="M2,24v-22h44v22z" fill="none" stroke-width="1"></path><path d="M2,24v-22h44v22z" fill="none" stroke-width="1"></path></g></svg>